<mxfile host="Electron" agent="Mozilla/5.0 (Windows NT 10.0; Win64; x64) AppleWebKit/537.36 (KHTML, like Gecko) draw.io/26.0.16 Chrome/132.0.6834.196 Electron/34.2.0 Safari/537.36" version="26.0.16">
  <diagram name="Page-1" id="0GxgSNl8TvIA0HETsGzW">
    <mxGraphModel dx="3088" dy="836" grid="1" gridSize="10" guides="1" tooltips="1" connect="1" arrows="1" fold="1" page="1" pageScale="1" pageWidth="827" pageHeight="1169" math="0" shadow="0">
      <root>
        <mxCell id="0" />
        <mxCell id="1" parent="0" />
        <mxCell id="1sNRbZC_Xhd7VANmqzn5-1" value="&lt;font style=&quot;font-size: 16px;&quot;&gt;&lt;b style=&quot;&quot;&gt;crm_cust_info&lt;/b&gt;&lt;/font&gt;" style="swimlane;fontStyle=0;childLayout=stackLayout;horizontal=1;startSize=30;horizontalStack=0;resizeParent=1;resizeParentMax=0;resizeLast=0;collapsible=1;marginBottom=0;whiteSpace=wrap;html=1;strokeWidth=2;fontSize=17;rounded=1;fillColor=#dae8fc;strokeColor=#6c8ebf;" parent="1" vertex="1">
          <mxGeometry x="-510" y="230" width="140" height="90" as="geometry" />
        </mxCell>
        <mxCell id="1sNRbZC_Xhd7VANmqzn5-6" value="cust_id" style="text;html=1;align=center;verticalAlign=middle;resizable=0;points=[];autosize=1;strokeColor=none;fillColor=none;fontSize=16;" parent="1sNRbZC_Xhd7VANmqzn5-1" vertex="1">
          <mxGeometry y="30" width="140" height="30" as="geometry" />
        </mxCell>
        <mxCell id="1sNRbZC_Xhd7VANmqzn5-30" value="cust_key" style="text;html=1;align=center;verticalAlign=middle;resizable=0;points=[];autosize=1;strokeColor=default;fillColor=none;fontSize=16;perimeterSpacing=2;strokeWidth=0;" parent="1sNRbZC_Xhd7VANmqzn5-1" vertex="1">
          <mxGeometry y="60" width="140" height="30" as="geometry" />
        </mxCell>
        <mxCell id="1sNRbZC_Xhd7VANmqzn5-8" value="&lt;b style=&quot;&quot;&gt;&lt;font style=&quot;font-size: 16px;&quot;&gt;crm_prd_info&lt;/font&gt;&lt;/b&gt;" style="swimlane;fontStyle=0;childLayout=stackLayout;horizontal=1;startSize=30;horizontalStack=0;resizeParent=1;resizeParentMax=0;resizeLast=0;collapsible=1;marginBottom=0;whiteSpace=wrap;html=1;strokeWidth=2;fontSize=17;rounded=1;fillColor=#dae8fc;strokeColor=#6c8ebf;" parent="1" vertex="1">
          <mxGeometry x="-510" y="80" width="140" height="60" as="geometry" />
        </mxCell>
        <mxCell id="1sNRbZC_Xhd7VANmqzn5-9" value="prd_key" style="text;html=1;align=center;verticalAlign=middle;resizable=0;points=[];autosize=1;strokeColor=none;fillColor=none;fontSize=16;" parent="1sNRbZC_Xhd7VANmqzn5-8" vertex="1">
          <mxGeometry y="30" width="140" height="30" as="geometry" />
        </mxCell>
        <mxCell id="1sNRbZC_Xhd7VANmqzn5-10" value="Customer Information" style="text;html=1;align=center;verticalAlign=middle;resizable=0;points=[];autosize=1;strokeColor=none;fillColor=none;" parent="1" vertex="1">
          <mxGeometry x="-510" y="200" width="140" height="30" as="geometry" />
        </mxCell>
        <mxCell id="1sNRbZC_Xhd7VANmqzn5-11" value="Current &amp;amp; Historical Product Information" style="text;html=1;align=center;verticalAlign=middle;resizable=0;points=[];autosize=1;strokeColor=none;fillColor=none;" parent="1" vertex="1">
          <mxGeometry x="-560" y="50" width="240" height="30" as="geometry" />
        </mxCell>
        <mxCell id="1sNRbZC_Xhd7VANmqzn5-18" value="&lt;b style=&quot;&quot;&gt;&lt;font style=&quot;font-size: 16px;&quot;&gt;crm_sales_details&lt;/font&gt;&lt;/b&gt;" style="swimlane;fontStyle=0;childLayout=stackLayout;horizontal=1;startSize=30;horizontalStack=0;resizeParent=1;resizeParentMax=0;resizeLast=0;collapsible=1;marginBottom=0;whiteSpace=wrap;html=1;strokeWidth=2;fontSize=17;rounded=1;fillColor=#dae8fc;strokeColor=#6c8ebf;" parent="1" vertex="1">
          <mxGeometry x="-870" y="140" width="140" height="90" as="geometry" />
        </mxCell>
        <mxCell id="1sNRbZC_Xhd7VANmqzn5-19" value="prd_id" style="text;html=1;align=center;verticalAlign=middle;resizable=0;points=[];autosize=1;strokeColor=none;fillColor=none;fontSize=16;" parent="1sNRbZC_Xhd7VANmqzn5-18" vertex="1">
          <mxGeometry y="30" width="140" height="30" as="geometry" />
        </mxCell>
        <mxCell id="1sNRbZC_Xhd7VANmqzn5-20" value="cust_id" style="text;html=1;align=center;verticalAlign=middle;resizable=0;points=[];autosize=1;strokeColor=default;fillColor=none;fontSize=16;perimeterSpacing=0;strokeWidth=0;" parent="1sNRbZC_Xhd7VANmqzn5-18" vertex="1">
          <mxGeometry y="60" width="140" height="30" as="geometry" />
        </mxCell>
        <mxCell id="1sNRbZC_Xhd7VANmqzn5-22" value="Transactional Records about Sales &amp;amp; Orders" style="text;html=1;align=center;verticalAlign=middle;resizable=0;points=[];autosize=1;strokeColor=none;fillColor=none;" parent="1" vertex="1">
          <mxGeometry x="-920" y="110" width="260" height="30" as="geometry" />
        </mxCell>
        <mxCell id="1sNRbZC_Xhd7VANmqzn5-25" style="edgeStyle=orthogonalEdgeStyle;rounded=0;orthogonalLoop=1;jettySize=auto;html=1;entryX=-0.029;entryY=0.233;entryDx=0;entryDy=0;entryPerimeter=0;" parent="1" source="1sNRbZC_Xhd7VANmqzn5-19" target="1sNRbZC_Xhd7VANmqzn5-9" edge="1">
          <mxGeometry relative="1" as="geometry">
            <mxPoint x="-600" y="120" as="targetPoint" />
            <Array as="points">
              <mxPoint x="-610" y="185" />
              <mxPoint x="-610" y="117" />
            </Array>
          </mxGeometry>
        </mxCell>
        <mxCell id="1sNRbZC_Xhd7VANmqzn5-26" style="edgeStyle=orthogonalEdgeStyle;rounded=0;orthogonalLoop=1;jettySize=auto;html=1;entryX=-0.05;entryY=0.233;entryDx=0;entryDy=0;entryPerimeter=0;" parent="1" source="1sNRbZC_Xhd7VANmqzn5-19" target="1sNRbZC_Xhd7VANmqzn5-6" edge="1">
          <mxGeometry relative="1" as="geometry">
            <mxPoint x="-610" y="280" as="targetPoint" />
            <Array as="points">
              <mxPoint x="-610" y="185" />
              <mxPoint x="-610" y="277" />
            </Array>
          </mxGeometry>
        </mxCell>
        <mxCell id="1sNRbZC_Xhd7VANmqzn5-27" value="&lt;b style=&quot;&quot;&gt;&lt;font style=&quot;font-size: 16px;&quot;&gt;erp_CUST_AZ12&lt;/font&gt;&lt;/b&gt;" style="swimlane;fontStyle=0;childLayout=stackLayout;horizontal=1;startSize=30;horizontalStack=0;resizeParent=1;resizeParentMax=0;resizeLast=0;collapsible=1;marginBottom=0;whiteSpace=wrap;html=1;strokeWidth=2;fontSize=17;rounded=1;fillColor=#ffe6cc;strokeColor=#d79b00;" parent="1" vertex="1">
          <mxGeometry x="-225" y="220" width="140" height="60" as="geometry" />
        </mxCell>
        <mxCell id="1sNRbZC_Xhd7VANmqzn5-28" value="CID" style="text;html=1;align=center;verticalAlign=middle;resizable=0;points=[];autosize=1;strokeColor=none;fillColor=none;fontSize=16;" parent="1sNRbZC_Xhd7VANmqzn5-27" vertex="1">
          <mxGeometry y="30" width="140" height="30" as="geometry" />
        </mxCell>
        <mxCell id="1sNRbZC_Xhd7VANmqzn5-29" value="Additional Customer Information (Birthdate)" style="text;html=1;align=center;verticalAlign=middle;resizable=0;points=[];autosize=1;strokeColor=none;fillColor=none;" parent="1" vertex="1">
          <mxGeometry x="-280" y="190" width="250" height="30" as="geometry" />
        </mxCell>
        <mxCell id="1sNRbZC_Xhd7VANmqzn5-33" value="&lt;b style=&quot;&quot;&gt;&lt;font style=&quot;font-size: 16px;&quot;&gt;erp_LOC_A1O1&lt;/font&gt;&lt;/b&gt;" style="swimlane;fontStyle=0;childLayout=stackLayout;horizontal=1;startSize=30;horizontalStack=0;resizeParent=1;resizeParentMax=0;resizeLast=0;collapsible=1;marginBottom=0;whiteSpace=wrap;html=1;strokeWidth=2;fontSize=17;rounded=1;fillColor=#ffe6cc;strokeColor=#d79b00;" parent="1" vertex="1">
          <mxGeometry x="-230" y="360" width="140" height="60" as="geometry" />
        </mxCell>
        <mxCell id="1sNRbZC_Xhd7VANmqzn5-34" value="CID" style="text;html=1;align=center;verticalAlign=middle;resizable=0;points=[];autosize=1;strokeColor=none;fillColor=none;fontSize=16;" parent="1sNRbZC_Xhd7VANmqzn5-33" vertex="1">
          <mxGeometry y="30" width="140" height="30" as="geometry" />
        </mxCell>
        <mxCell id="1sNRbZC_Xhd7VANmqzn5-35" value="Location Of Customer (Country)" style="text;html=1;align=center;verticalAlign=middle;resizable=0;points=[];autosize=1;strokeColor=none;fillColor=none;" parent="1" vertex="1">
          <mxGeometry x="-250" y="330" width="190" height="30" as="geometry" />
        </mxCell>
        <mxCell id="1sNRbZC_Xhd7VANmqzn5-38" value="&lt;b style=&quot;&quot;&gt;&lt;font style=&quot;font-size: 15px;&quot;&gt;erp_PX_CAT_G1V2&lt;/font&gt;&lt;/b&gt;" style="swimlane;fontStyle=0;childLayout=stackLayout;horizontal=1;startSize=30;horizontalStack=0;resizeParent=1;resizeParentMax=0;resizeLast=0;collapsible=1;marginBottom=0;whiteSpace=wrap;html=1;strokeWidth=2;fontSize=17;rounded=1;fillColor=#ffe6cc;strokeColor=#d79b00;" parent="1" vertex="1">
          <mxGeometry x="-220" y="80" width="140" height="60" as="geometry" />
        </mxCell>
        <mxCell id="1sNRbZC_Xhd7VANmqzn5-39" value="ID" style="text;html=1;align=center;verticalAlign=middle;resizable=0;points=[];autosize=1;strokeColor=none;fillColor=none;fontSize=16;" parent="1sNRbZC_Xhd7VANmqzn5-38" vertex="1">
          <mxGeometry y="30" width="140" height="30" as="geometry" />
        </mxCell>
        <mxCell id="1sNRbZC_Xhd7VANmqzn5-40" value="Product Categories" style="text;html=1;align=center;verticalAlign=middle;resizable=0;points=[];autosize=1;strokeColor=none;fillColor=none;" parent="1" vertex="1">
          <mxGeometry x="-215" y="50" width="130" height="30" as="geometry" />
        </mxCell>
        <mxCell id="1sNRbZC_Xhd7VANmqzn5-43" style="edgeStyle=orthogonalEdgeStyle;rounded=0;orthogonalLoop=1;jettySize=auto;html=1;entryX=-0.036;entryY=0.5;entryDx=0;entryDy=0;entryPerimeter=0;" parent="1" source="1sNRbZC_Xhd7VANmqzn5-9" target="1sNRbZC_Xhd7VANmqzn5-39" edge="1">
          <mxGeometry relative="1" as="geometry" />
        </mxCell>
        <mxCell id="1sNRbZC_Xhd7VANmqzn5-44" value="" style="rounded=1;whiteSpace=wrap;html=1;arcSize=11;fillColor=none;" parent="1" vertex="1">
          <mxGeometry x="-920" y="40" width="600" height="310" as="geometry" />
        </mxCell>
        <mxCell id="1sNRbZC_Xhd7VANmqzn5-45" value="&lt;font style=&quot;font-size: 22px;&quot;&gt;CRM&lt;/font&gt;" style="text;html=1;align=center;verticalAlign=middle;whiteSpace=wrap;rounded=0;fontStyle=1;fillColor=#dae8fc;strokeColor=#6c8ebf;" parent="1" vertex="1">
          <mxGeometry x="-670" y="10" width="60" height="30" as="geometry" />
        </mxCell>
        <mxCell id="1sNRbZC_Xhd7VANmqzn5-46" value="" style="rounded=1;whiteSpace=wrap;html=1;arcSize=10;fillColor=none;" parent="1" vertex="1">
          <mxGeometry x="-300" y="40" width="270" height="420" as="geometry" />
        </mxCell>
        <mxCell id="1sNRbZC_Xhd7VANmqzn5-47" value="&lt;font style=&quot;font-size: 22px;&quot;&gt;&lt;b style=&quot;&quot;&gt;ERP&lt;/b&gt;&lt;/font&gt;" style="text;html=1;align=center;verticalAlign=middle;whiteSpace=wrap;rounded=0;fillColor=#ffe6cc;strokeColor=#d79b00;" parent="1" vertex="1">
          <mxGeometry x="-180" y="10" width="60" height="30" as="geometry" />
        </mxCell>
        <mxCell id="jTnMDviZm_521abuMWTr-1" value="&lt;font style=&quot;font-size: 15px;&quot;&gt;Products&lt;/font&gt;" style="text;html=1;strokeColor=#d6b656;fillColor=#fff2cc;align=center;verticalAlign=middle;whiteSpace=wrap;overflow=hidden;" vertex="1" parent="1">
          <mxGeometry x="-500" y="140" width="120" height="20" as="geometry" />
        </mxCell>
        <mxCell id="jTnMDviZm_521abuMWTr-33" value="&lt;font style=&quot;font-size: 15px;&quot;&gt;Products&lt;/font&gt;" style="text;html=1;strokeColor=#d6b656;fillColor=#fff2cc;align=center;verticalAlign=middle;whiteSpace=wrap;overflow=hidden;" vertex="1" parent="1">
          <mxGeometry x="-210" y="140" width="120" height="20" as="geometry" />
        </mxCell>
        <mxCell id="jTnMDviZm_521abuMWTr-34" value="&lt;span style=&quot;font-size: 15px;&quot;&gt;Customers&lt;/span&gt;" style="text;html=1;strokeColor=#9673a6;fillColor=#e1d5e7;align=center;verticalAlign=middle;whiteSpace=wrap;overflow=hidden;" vertex="1" parent="1">
          <mxGeometry x="-215" y="280" width="120" height="20" as="geometry" />
        </mxCell>
        <mxCell id="jTnMDviZm_521abuMWTr-35" value="&lt;span style=&quot;font-size: 15px;&quot;&gt;Customers&lt;/span&gt;" style="text;html=1;strokeColor=#9673a6;fillColor=#e1d5e7;align=center;verticalAlign=middle;whiteSpace=wrap;overflow=hidden;" vertex="1" parent="1">
          <mxGeometry x="-500" y="320" width="120" height="20" as="geometry" />
        </mxCell>
        <mxCell id="jTnMDviZm_521abuMWTr-36" value="&lt;span style=&quot;font-size: 15px;&quot;&gt;Customers&lt;/span&gt;" style="text;html=1;strokeColor=#9673a6;fillColor=#e1d5e7;align=center;verticalAlign=middle;whiteSpace=wrap;overflow=hidden;" vertex="1" parent="1">
          <mxGeometry x="-215" y="420" width="120" height="20" as="geometry" />
        </mxCell>
        <mxCell id="jTnMDviZm_521abuMWTr-37" style="edgeStyle=orthogonalEdgeStyle;rounded=0;orthogonalLoop=1;jettySize=auto;html=1;entryX=-0.043;entryY=0.433;entryDx=0;entryDy=0;entryPerimeter=0;" edge="1" parent="1" source="1sNRbZC_Xhd7VANmqzn5-30" target="1sNRbZC_Xhd7VANmqzn5-28">
          <mxGeometry relative="1" as="geometry">
            <Array as="points">
              <mxPoint x="-290" y="305" />
              <mxPoint x="-290" y="263" />
            </Array>
          </mxGeometry>
        </mxCell>
        <mxCell id="jTnMDviZm_521abuMWTr-38" style="edgeStyle=orthogonalEdgeStyle;rounded=0;orthogonalLoop=1;jettySize=auto;html=1;entryX=-0.043;entryY=0.867;entryDx=0;entryDy=0;entryPerimeter=0;" edge="1" parent="1" source="1sNRbZC_Xhd7VANmqzn5-30" target="1sNRbZC_Xhd7VANmqzn5-34">
          <mxGeometry relative="1" as="geometry">
            <Array as="points">
              <mxPoint x="-290" y="305" />
              <mxPoint x="-290" y="410" />
              <mxPoint x="-236" y="410" />
            </Array>
          </mxGeometry>
        </mxCell>
        <mxCell id="jTnMDviZm_521abuMWTr-39" value="&lt;span style=&quot;font-size: 15px;&quot;&gt;Sales&lt;/span&gt;" style="text;html=1;strokeColor=#82b366;fillColor=#d5e8d4;align=center;verticalAlign=middle;whiteSpace=wrap;overflow=hidden;" vertex="1" parent="1">
          <mxGeometry x="-860" y="230" width="120" height="20" as="geometry" />
        </mxCell>
      </root>
    </mxGraphModel>
  </diagram>
</mxfile>
